<svg height="502pt" viewBox="0 -76 502.416 502" width="502pt" xmlns="http://www.w3.org/2000/svg"><path d="m454.285156 39.054688v248.800781h-406.160156v-248.800781c0-17.738282 13.28125-32.398438 30.460938-34.519532 1.421874-.179687 2.878906-.277344 4.339843-.277344h336.558594c19.222656 0 34.800781 15.578126 34.800781 34.796876zm0 0" fill="#1c868e"/><path d="m454.285156 39.054688v248.800781h-375.699218v-283.320313c1.421874-.179687 2.878906-.277344 4.339843-.277344h336.558594c19.222656 0 34.800781 15.578126 34.800781 34.796876zm0 0" fill="#40c4df"/><path d="m498.40625 299.996094v9.339844c0 20.121093-16.300781 36.441406-36.421875 36.441406h-421.558594c-20.121093 0-36.417969-16.320313-36.417969-36.441406v-9.339844c0-6.699219 5.4375-12.140625 12.136719-12.140625h470.121094c6.699219 0 12.140625 5.441406 12.140625 12.140625zm0 0" fill="#56c1b3"/><path d="m498.40625 299.996094v9.339844c0 20.121093-16.300781 36.441406-36.421875 36.441406h-391.097656c-20.121094 0-36.421875-16.320313-36.421875-36.441406v-9.339844c0-6.699219 5.441406-12.140625 12.140625-12.140625h439.660156c6.699219 0 12.140625 5.441406 12.140625 12.140625zm0 0" fill="#7befe4"/><path d="m432.707031 35.855469v252h-363v-252c0-5.140625 3.878907-9.378907 8.878907-9.917969.359374-.0625.738281-.082031 1.121093-.082031h343c5.519531 0 10 4.480469 10 10zm0 0" fill="#d8d6d7"/><path d="m432.707031 35.855469v252h-332.542969v-262h322.542969c5.519531 0 10 4.480469 10 10zm0 0" fill="#fff"/><path d="m454.285156 39.054688v248.800781h-21.578125v-252c0-5.519531-4.480469-10-10-10h-343c-.382812 0-.761719.019531-1.121093.082031v-21.402344c1.421874-.179687 2.878906-.277344 4.339843-.277344h336.558594c19.222656 0 34.800781 15.578126 34.800781 34.796876zm0 0" fill="#40c4df"/><path d="m307.863281 288.109375v10.21875c0 10.347656-8.402343 18.746094-18.746093 18.746094h-75.027344c-10.347656 0-18.746094-8.398438-18.746094-18.746094v-10.21875zm0 0" fill="#56c1b3"/><path d="m371.394531 260.960938h-76c-5.523437 0-10-4.480469-10-10v-2c0-5.523438 4.476563-10 10-10h76c5.519531 0 10 4.476562 10 10v2c0 5.519531-4.476562 10-10 10zm0 0" fill="#7befe4"/><path d="m309.269531 176.878906c2.199219 16 1.058594 38.621094-13.882812 62.082032h76c-14.917969-23.460938-16.078125-46.0625-13.898438-62.0625zm0 0" fill="#40c4df"/><path d="m386.394531 75.210938h-106c-5.523437 0-10-4.480469-10-10v-8c0-5.523438 4.476563-10 10-10h106c5.519531 0 10 4.476562 10 10v8c0 5.519531-4.476562 10-10 10zm0 0" fill="#40c4df"/><path d="m333.394531 183.210938c-27.199219 0-49.25-22.050782-49.25-49.25v-58.75h98.5v58.75c0 27.199218-22.050781 49.25-49.25 49.25zm0 0" fill="#7befe4"/><g fill="#491352"><path d="m94.964844 69.507812h1.570312c2.769532 0 5.011719 2.246094 5.011719 5.011719v67.28125c0 2.765625 2.246094 5.011719 5.011719 5.011719h1.085937c2.769531 0 5.011719-2.246094 5.011719-5.011719v-77.304687c0-2.769532-2.242188-5.011719-5.011719-5.011719h-12.679687c-2.769532 0-5.011719 2.242187-5.011719 5.011719 0 2.769531 2.242187 5.011718 5.011719 5.011718zm0 0"/><path d="m165.929688 58.15625c-24.15625 0-30.4375 19.082031-30.4375 44.085938 0 25.367187 6.28125 44.570312 30.4375 44.570312 24.039062 0 30.316406-19.203125 30.316406-44.570312 0-25.003907-6.28125-44.085938-30.316406-44.085938zm0 78.632812c-17.273438 0-19.566407-15.703124-19.566407-34.546874 0-18.117188 2.292969-34.058594 19.566407-34.058594 17.152343 0 19.449218 15.941406 19.449218 34.058594-.003906 18.84375-2.300781 34.546874-19.449218 34.546874zm0 0"/><path d="m217.445312 69.507812h1.570313c2.769531 0 5.011719 2.246094 5.011719 5.011719v67.28125c0 2.765625 2.246094 5.011719 5.011718 5.011719h1.085938c2.769531 0 5.011719-2.246094 5.011719-5.011719v-77.304687c0-2.769532-2.242188-5.011719-5.011719-5.011719h-12.679688c-2.769531 0-5.011718 2.242187-5.011718 5.011719 0 2.769531 2.246094 5.011718 5.011718 5.011718zm0 0"/><path d="m115.195312 166.773438c-24.15625 0-30.4375 19.085937-30.4375 44.089843 0 25.363281 6.28125 44.570313 30.4375 44.570313 24.039063 0 30.320313-19.207032 30.320313-44.570313 0-25.003906-6.28125-44.089843-30.320313-44.089843zm0 78.632812c-17.269531 0-19.566406-15.703125-19.566406-34.542969 0-18.121093 2.292969-34.0625 19.566406-34.0625 17.152344 0 19.449219 15.945313 19.449219 34.0625 0 18.839844-2.296875 34.542969-19.449219 34.542969zm0 0"/><path d="m172.390625 168.101562h-12.683594c-2.765625 0-5.011719 2.246094-5.011719 5.011719 0 2.769531 2.246094 5.011719 5.011719 5.011719h1.570313c2.769531 0 5.011718 2.246094 5.011718 5.011719v67.28125c0 2.769531 2.246094 5.011719 5.011719 5.011719h1.085938c2.769531 0 5.011719-2.242188 5.011719-5.011719v-77.304688c.003906-2.765625-2.238282-5.011719-5.007813-5.011719zm0 0"/><path d="m223.664062 166.773438c-24.15625 0-30.4375 19.085937-30.4375 44.089843 0 25.363281 6.28125 44.570313 30.4375 44.570313 24.039063 0 30.320313-19.207032 30.320313-44.570313 0-25.003906-6.28125-44.089843-30.320313-44.089843zm0 78.632812c-17.269531 0-19.566406-15.703125-19.566406-34.542969 0-18.121093 2.296875-34.0625 19.566406-34.0625 17.152344 0 19.449219 15.945313 19.449219 34.0625 0 18.839844-2.296875 34.542969-19.449219 34.542969zm0 0"/><path d="m486.277344 283.800781h-27.980469v-244.792969c0-21.394531-17.40625-38.800781-38.796875-38.800781h-336.582031c-21.394531 0-38.796875 17.40625-38.796875 38.800781v244.792969h-27.980469c-8.902344 0-16.140625 7.238281-16.140625 16.140625v9.347656c0 22.289063 18.132812 40.421876 40.421875 40.421876h421.570313c22.292968 0 40.421874-18.132813 40.421874-40.421876v-9.347656c0-8.902344-7.238281-16.140625-16.136718-16.140625zm-434.15625-244.792969c0-16.984374 13.816406-30.800781 30.796875-30.800781h336.578125c16.984375 0 30.800781 13.816407 30.800781 30.800781v244.792969h-13.589844v-248.007812c0-7.71875-6.277343-14-14-14h-343c-7.71875 0-14 6.28125-14 14v248.007812h-13.585937zm21.585937 244.785157v-248c0-3.308594 2.691407-6 6-6h343c3.308594 0 6 2.691406 6 6v248zm229.761719 8.007812v6.222657c0 8.128906-6.613281 14.746093-14.746094 14.746093h-75.03125c-8.128906 0-14.746094-6.617187-14.746094-14.746093v-6.222657zm190.945312 17.488281c0 17.875-14.542968 32.421876-32.421874 32.421876h-421.570313c-17.878906 0-32.421875-14.542969-32.421875-32.421876v-9.347656c0-4.488281 3.652344-8.140625 8.140625-8.140625h174.808594v6.222657c0 12.539062 10.203125 22.746093 22.746093 22.746093h75.027344c12.542969 0 22.746094-10.207031 22.746094-22.746093v-6.222657h174.808594c4.488281 0 8.140625 3.652344 8.140625 8.140625v9.347656zm0 0"/><path d="m414.902344 90.960938h-28.257813v-11.761719c7.601563-.136719 13.75-6.351563 13.75-13.988281v-8c0-7.71875-6.28125-14-14-14h-106c-7.71875 0-14 6.28125-14 14v8c0 7.632812 6.144531 13.851562 13.75 13.988281v11.761719h-28.320312c-1.949219 0-3.613281 1.402343-3.941407 3.320312-.277343 1.613281-6.179687 39.664062 42.273438 70.703125 4.125 5.730469 9.351562 10.617187 15.378906 14.332031 1.625 14.082032.46875 34.515625-12.542968 55.863282-6.578126 1.144531-11.597657 6.878906-11.597657 13.78125v2c0 7.71875 6.28125 14 14 14h76c7.71875 0 14-6.28125 14-14v-2c0-6.90625-5.027343-12.644532-11.613281-13.78125-12.992188-21.351563-14.164062-41.769532-12.558594-55.84375 6.066406-3.734376 11.320313-8.652344 15.460938-14.425782 48.328125-31.027344 42.4375-69.019531 42.160156-70.628906-.328125-1.917969-1.992188-3.320312-3.941406-3.320312zm-140.507813-25.75v-8c0-3.308594 2.691407-6 6-6h106c3.308594 0 6 2.691406 6 6v8c0 3.308593-2.691406 6-6 6-20.339843 0-85.574219 0-106 0-3.308593 0-6-2.691407-6-6zm-18.882812 33.75h24.632812v35c0 5.398437.8125 10.609374 2.316407 15.527343-24.933594-20.84375-27.128907-42.402343-26.949219-50.527343zm121.882812 150v2c0 3.308593-2.691406 6-6 6h-76c-3.308593 0-6-2.691407-6-6v-2c0-3.308594 2.691407-6 6-6h76c3.308594 0 6 2.691406 6 6zm-12.96875-14h-62.070312c10.460937-19.214844 12.429687-37.503907 11.574219-51.449219 12.511718 4.929687 26.390624 4.933593 38.90625.007812-.84375 13.9375 1.136718 32.222657 11.589843 51.441407zm14.21875-101c0 24.949218-20.296875 45.25-45.25 45.25s-45.25-20.300782-45.25-45.25v-54.75h90.5zm5.714844 15.425781c1.480469-4.882813 2.285156-10.0625 2.285156-15.425781v-35h24.542969c.101562 8.101562-2.222656 29.714843-26.828125 50.425781zm0 0"/></g></svg>