<?xml version="1.0" encoding="utf-8"?>
<!-- Generator: Adobe Illustrator 19.0.0, SVG Export Plug-In . SVG Version: 6.00 Build 0)  -->
<svg xmlns="http://www.w3.org/2000/svg" xmlns:xlink="http://www.w3.org/1999/xlink" version="1.1" id="Layer_1" x="0px" y="0px" viewBox="0 2 98 98" style="enable-background:new 0 2 98 98;" xml:space="preserve" width="512" height="512">
<style type="text/css">
	.st0{fill:url(#SVGID_1_);}
	.st1{fill:url(#SVGID_2_);}
	.st2{fill:url(#SVGID_3_);}
	.st3{fill:url(#SVGID_4_);}
</style>
<g>
	
		<linearGradient id="SVGID_1_" gradientUnits="userSpaceOnUse" x1="49" y1="95.25" x2="49" y2="12.9905" gradientTransform="matrix(1 0 0 -1 0 104)">
		<stop offset="0" style="stop-color:#00EFD1"/>
		<stop offset="1" style="stop-color:#00ACEA"/>
	</linearGradient>
	<path class="st0" d="M90,12H8c-1.7,0-3,1.3-3,3v76c0,1.7,1.3,3,3,3h82c1.7,0,3-1.3,3-3V15C93,13.3,91.7,12,90,12z M87,18v12.3H11   V18H87z M11,88V36.3h76V88H11z"/>
	
		<linearGradient id="SVGID_2_" gradientUnits="userSpaceOnUse" x1="28.107" y1="95.25" x2="28.107" y2="12.9905" gradientTransform="matrix(1 0 0 -1 0 104)">
		<stop offset="0" style="stop-color:#00EFD1"/>
		<stop offset="1" style="stop-color:#00ACEA"/>
	</linearGradient>
	<path class="st1" d="M37.9,47.8c-1-1.3-2.9-1.5-4.2-0.5l-15,12c-0.7,0.6-1.1,1.4-1.1,2.3s0.4,1.8,1.1,2.3l15,12   c0.6,0.4,1.2,0.7,1.9,0.7c0.9,0,1.8-0.4,2.3-1.1c1-1.3,0.8-3.2-0.5-4.2l-12.1-9.7L37.5,52C38.8,51,39,49.1,37.9,47.8z"/>
	
		<linearGradient id="SVGID_3_" gradientUnits="userSpaceOnUse" x1="69.1338" y1="95.25" x2="69.1338" y2="12.9905" gradientTransform="matrix(1 0 0 -1 0 104)">
		<stop offset="0" style="stop-color:#00EFD1"/>
		<stop offset="1" style="stop-color:#00ACEA"/>
	</linearGradient>
	<path class="st2" d="M63.5,47.4c-1.3-1-3.2-0.8-4.2,0.5s-0.8,3.2,0.5,4.2l12.1,9.7l-12.1,9.7c-1.3,1-1.5,2.9-0.5,4.2   c0.6,0.7,1.5,1.1,2.3,1.1c0.7,0,1.3-0.2,1.9-0.7l15-12c0.7-0.6,1.1-1.4,1.1-2.3s-0.4-1.8-1.1-2.3L63.5,47.4z"/>
	
		<linearGradient id="SVGID_4_" gradientUnits="userSpaceOnUse" x1="48" y1="95.25" x2="48" y2="12.9905" gradientTransform="matrix(1 0 0 -1 0 104)">
		<stop offset="0" style="stop-color:#00EFD1"/>
		<stop offset="1" style="stop-color:#00ACEA"/>
	</linearGradient>
	<path class="st3" d="M54,38.1c-1.6-0.4-3.2,0.6-3.6,2.2L39.8,82c-0.4,1.6,0.6,3.2,2.2,3.6c0.2,0.1,0.5,0.1,0.7,0.1   c1.3,0,2.6-0.9,2.9-2.3l10.6-41.7C56.6,40.1,55.6,38.5,54,38.1z"/>
</g>
</svg>
