<?xml version="1.0" encoding="iso-8859-1"?>
<!-- Generator: Adobe Illustrator 19.0.0, SVG Export Plug-In . SVG Version: 6.00 Build 0)  -->
<svg version="1.1" id="Capa_1" xmlns="http://www.w3.org/2000/svg" xmlns:xlink="http://www.w3.org/1999/xlink" x="0px" y="0px"
	 viewBox="0 0 512 512" style="enable-background:new 0 0 512 512;" xml:space="preserve">
<g>
	<g>
		<path d="M210.286,51.045H36.571v27.429v320h173.714c1.655,0,3.282,0.448,4.699,1.307l31.872,19.118V87.616
			C246.857,67.447,230.455,51.045,210.286,51.045z M64,87.616h82.286c5.047,0,9.143,4.096,9.143,9.143s-4.096,9.143-9.143,9.143H64
			c-5.047,0-9.143-4.096-9.143-9.143S58.953,87.616,64,87.616z M64,124.187h36.571c5.047,0,9.143,4.096,9.143,9.143
			c0,5.047-4.096,9.143-9.143,9.143H64c-5.047,0-9.143-4.096-9.143-9.143C54.857,128.283,58.953,124.187,64,124.187z M64,160.759
			h82.286c5.047,0,9.143,4.096,9.143,9.143c0,5.047-4.096,9.143-9.143,9.143H64c-5.047,0-9.143-4.096-9.143-9.143
			C54.857,164.855,58.953,160.759,64,160.759z M64,197.33h36.571c5.047,0,9.143,4.096,9.143,9.143s-4.096,9.143-9.143,9.143H64
			c-5.047,0-9.143-4.096-9.143-9.143S58.953,197.33,64,197.33z M64,233.902h82.286c5.047,0,9.143,4.096,9.143,9.143
			c0,5.047-4.096,9.143-9.143,9.143H64c-5.047,0-9.143-4.096-9.143-9.143C54.857,237.998,58.953,233.902,64,233.902z M64,270.473
			h36.571c5.047,0,9.143,4.096,9.143,9.143c0,5.047-4.096,9.143-9.143,9.143H64c-5.047,0-9.143-4.096-9.143-9.143
			C54.857,274.569,58.953,270.473,64,270.473z M64,307.045h82.286c5.047,0,9.143,4.096,9.143,9.143s-4.096,9.143-9.143,9.143H64
			c-5.047,0-9.143-4.096-9.143-9.143S58.953,307.045,64,307.045z M100.571,361.902H64c-5.047,0-9.143-4.096-9.143-9.143
			c0-5.047,4.096-9.143,9.143-9.143h36.571c5.047,0,9.143,4.096,9.143,9.143C109.714,357.806,105.618,361.902,100.571,361.902z
			 M219.429,361.902h-82.286c-5.047,0-9.143-4.096-9.143-9.143c0-5.047,4.096-9.143,9.143-9.143h82.286
			c5.047,0,9.143,4.096,9.143,9.143C228.571,357.806,224.475,361.902,219.429,361.902z M219.429,325.33h-36.571
			c-5.047,0-9.143-4.096-9.143-9.143s4.096-9.143,9.143-9.143h36.571c5.047,0,9.143,4.096,9.143,9.143
			S224.475,325.33,219.429,325.33z M219.429,288.759h-82.286c-5.047,0-9.143-4.096-9.143-9.143c0-5.047,4.096-9.143,9.143-9.143
			h82.286c5.047,0,9.143,4.096,9.143,9.143C228.571,284.663,224.475,288.759,219.429,288.759z M219.429,252.187h-36.571
			c-5.047,0-9.143-4.096-9.143-9.143c0-5.047,4.096-9.143,9.143-9.143h36.571c5.047,0,9.143,4.096,9.143,9.143
			C228.571,248.091,224.475,252.187,219.429,252.187z M219.429,215.616h-82.286c-5.047,0-9.143-4.096-9.143-9.143
			s4.096-9.143,9.143-9.143h82.286c5.047,0,9.143,4.096,9.143,9.143S224.475,215.616,219.429,215.616z M219.429,179.045h-36.571
			c-5.047,0-9.143-4.096-9.143-9.143c0-5.047,4.096-9.143,9.143-9.143h36.571c5.047,0,9.143,4.096,9.143,9.143
			C228.571,174.949,224.475,179.045,219.429,179.045z M219.429,142.473h-82.286c-5.047,0-9.143-4.096-9.143-9.143
			c0-5.047,4.096-9.143,9.143-9.143h82.286c5.047,0,9.143,4.096,9.143,9.143C228.571,138.377,224.475,142.473,219.429,142.473z
			 M219.429,105.902h-36.571c-5.047,0-9.143-4.096-9.143-9.143s4.096-9.143,9.143-9.143h36.571c5.047,0,9.143,4.096,9.143,9.143
			S224.475,105.902,219.429,105.902z"/>
	</g>
</g>
<g>
	<g>
		<path d="M493.714,87.616v320c0,5.047-4.096,9.143-9.143,9.143H304.247l-43.547,26.121c-0.037,0.018-0.073,0.027-0.101,0.046
			c-0.037,0.018-0.055,0.055-0.091,0.073c-0.439,0.247-0.914,0.393-1.381,0.558c-0.256,0.091-0.503,0.238-0.759,0.311
			c-0.667,0.183-1.353,0.247-2.039,0.274c-0.219,0.009-0.43,0.009-0.64,0c-0.686-0.027-1.371-0.101-2.039-0.274
			c-0.265-0.073-0.503-0.219-0.759-0.311c-0.466-0.174-0.942-0.311-1.381-0.558c-0.037-0.018-0.064-0.055-0.091-0.073
			c-0.037-0.018-0.073-0.027-0.101-0.046l-43.566-26.121H27.429c-5.047,0-9.143-4.096-9.143-9.143v-320H0v347.429h210.286
			c1.655,0,3.282,0.448,4.699,1.307L256,460.955l41.015-24.603c1.417-0.859,3.045-1.307,4.699-1.307H512V87.616H493.714z"/>
	</g>
</g>
<g>
	<g>
		<path d="M301.714,51.045c-20.169,0-36.571,16.402-36.571,36.571v331.282l31.872-19.118c1.417-0.859,3.045-1.307,4.699-1.307
			h173.714v-320V51.045H301.714z M292.571,87.616h82.286c5.047,0,9.143,4.096,9.143,9.143s-4.096,9.143-9.143,9.143h-82.286
			c-5.047,0-9.143-4.096-9.143-9.143S287.525,87.616,292.571,87.616z M292.571,124.187h36.571c5.047,0,9.143,4.096,9.143,9.143
			c0,5.047-4.096,9.143-9.143,9.143h-36.571c-5.047,0-9.143-4.096-9.143-9.143C283.429,128.283,287.525,124.187,292.571,124.187z
			 M292.571,160.759h82.286c5.047,0,9.143,4.096,9.143,9.143c0,5.047-4.096,9.143-9.143,9.143h-82.286
			c-5.047,0-9.143-4.096-9.143-9.143C283.429,164.855,287.525,160.759,292.571,160.759z M292.571,197.33h36.571
			c5.047,0,9.143,4.096,9.143,9.143s-4.096,9.143-9.143,9.143h-36.571c-5.047,0-9.143-4.096-9.143-9.143
			S287.525,197.33,292.571,197.33z M292.571,233.902h82.286c5.047,0,9.143,4.096,9.143,9.143c0,5.047-4.096,9.143-9.143,9.143
			h-82.286c-5.047,0-9.143-4.096-9.143-9.143C283.429,237.998,287.525,233.902,292.571,233.902z M292.571,270.473h36.571
			c5.047,0,9.143,4.096,9.143,9.143c0,5.047-4.096,9.143-9.143,9.143h-36.571c-5.047,0-9.143-4.096-9.143-9.143
			C283.429,274.569,287.525,270.473,292.571,270.473z M292.571,307.045h82.286c5.047,0,9.143,4.096,9.143,9.143
			s-4.096,9.143-9.143,9.143h-82.286c-5.047,0-9.143-4.096-9.143-9.143S287.525,307.045,292.571,307.045z M329.143,361.902h-36.571
			c-5.047,0-9.143-4.096-9.143-9.143c0-5.047,4.096-9.143,9.143-9.143h36.571c5.047,0,9.143,4.096,9.143,9.143
			C338.286,357.806,334.19,361.902,329.143,361.902z M448,361.902h-82.286c-5.047,0-9.143-4.096-9.143-9.143
			c0-5.047,4.096-9.143,9.143-9.143H448c5.047,0,9.143,4.096,9.143,9.143C457.143,357.806,453.047,361.902,448,361.902z M448,325.33
			h-36.571c-5.047,0-9.143-4.096-9.143-9.143s4.096-9.143,9.143-9.143H448c5.047,0,9.143,4.096,9.143,9.143
			S453.047,325.33,448,325.33z M448,288.759h-82.286c-5.047,0-9.143-4.096-9.143-9.143c0-5.047,4.096-9.143,9.143-9.143H448
			c5.047,0,9.143,4.096,9.143,9.143C457.143,284.663,453.047,288.759,448,288.759z M448,252.187h-36.571
			c-5.047,0-9.143-4.096-9.143-9.143c0-5.047,4.096-9.143,9.143-9.143H448c5.047,0,9.143,4.096,9.143,9.143
			C457.143,248.091,453.047,252.187,448,252.187z M448,215.616h-82.286c-5.047,0-9.143-4.096-9.143-9.143s4.096-9.143,9.143-9.143
			H448c5.047,0,9.143,4.096,9.143,9.143S453.047,215.616,448,215.616z M448,179.045h-36.571c-5.047,0-9.143-4.096-9.143-9.143
			c0-5.047,4.096-9.143,9.143-9.143H448c5.047,0,9.143,4.096,9.143,9.143C457.143,174.949,453.047,179.045,448,179.045z
			 M448,142.473h-82.286c-5.047,0-9.143-4.096-9.143-9.143c0-5.047,4.096-9.143,9.143-9.143H448c5.047,0,9.143,4.096,9.143,9.143
			C457.143,138.377,453.047,142.473,448,142.473z M448,105.902h-36.571c-5.047,0-9.143-4.096-9.143-9.143s4.096-9.143,9.143-9.143
			H448c5.047,0,9.143,4.096,9.143,9.143S453.047,105.902,448,105.902z"/>
	</g>
</g>
<g>
</g>
<g>
</g>
<g>
</g>
<g>
</g>
<g>
</g>
<g>
</g>
<g>
</g>
<g>
</g>
<g>
</g>
<g>
</g>
<g>
</g>
<g>
</g>
<g>
</g>
<g>
</g>
<g>
</g>
</svg>
