<?xml version="1.0"?><svg fill="#000000" xmlns="http://www.w3.org/2000/svg"  viewBox="0 0 64 64" width="64px" height="64px">    <path d="M 16 5 C 14.344 5 13 6.344 13 8 L 13 11 L 8 11 C 6.344 11 5 12.344 5 14 L 5 56 C 5 57.656 6.344 59 8 59 L 56 59 C 57.656 59 59 57.656 59 56 L 59 14 C 59 12.344 57.656 11 56 11 L 51 11 L 51 8 C 51 6.344 49.656 5 48 5 C 46.344 5 45 6.344 45 8 L 45 11 L 35 11 L 35 8 C 35 6.344 33.656 5 32 5 C 30.344 5 29 6.344 29 8 L 29 11 L 19 11 L 19 8 C 19 6.344 17.656 5 16 5 z M 16 7 C 16.551 7 17 7.449 17 8 L 17 16 C 17 16.551 16.551 17 16 17 C 15.449 17 15 16.551 15 16 L 15 8 C 15 7.449 15.449 7 16 7 z M 32 7 C 32.551 7 33 7.449 33 8 L 33 16 C 33 16.551 32.551 17 32 17 C 31.449 17 31 16.551 31 16 L 31 8 C 31 7.449 31.449 7 32 7 z M 48 7 C 48.551 7 49 7.449 49 8 L 49 16 C 49 16.551 48.551 17 48 17 C 47.449 17 47 16.551 47 16 L 47 8 C 47 7.449 47.449 7 48 7 z M 8 13 L 13 13 L 13 16 C 13 17.656 14.344 19 16 19 C 17.656 19 19 17.656 19 16 L 19 13 L 29 13 L 29 16 C 29 17.656 30.344 19 32 19 C 33.656 19 35 17.656 35 16 L 35 13 L 45 13 L 45 16 C 45 17.656 46.344 19 48 19 C 49.656 19 51 17.656 51 16 L 51 13 L 56 13 C 56.551 13 57 13.449 57 14 L 57 21 C 56.449 21 56 21.449 56 22 L 56 24 C 56 24.551 56.449 25 57 25 L 57 56 C 57 56.551 56.551 57 56 57 L 8 57 C 7.449 57 7 56.551 7 56 L 7 25 C 7.551 25 8 24.551 8 24 L 8 22 C 8 21.449 7.551 21 7 21 L 7 14 C 7 13.449 7.449 13 8 13 z M 12 21 C 11.449 21 11 21.449 11 22 L 11 24 C 11 24.551 11.449 25 12 25 C 12.551 25 13 24.551 13 24 L 13 22 C 13 21.449 12.551 21 12 21 z M 17 21 C 16.449 21 16 21.449 16 22 L 16 24 C 16 24.551 16.449 25 17 25 C 17.551 25 18 24.551 18 24 L 18 22 C 18 21.449 17.551 21 17 21 z M 22 21 C 21.449 21 21 21.449 21 22 L 21 24 C 21 24.551 21.449 25 22 25 C 22.551 25 23 24.551 23 24 L 23 22 C 23 21.449 22.551 21 22 21 z M 27 21 C 26.449 21 26 21.449 26 22 L 26 24 C 26 24.551 26.449 25 27 25 C 27.551 25 28 24.551 28 24 L 28 22 C 28 21.449 27.551 21 27 21 z M 32 21 C 31.449 21 31 21.449 31 22 L 31 24 C 31 24.551 31.449 25 32 25 C 32.551 25 33 24.551 33 24 L 33 22 C 33 21.449 32.551 21 32 21 z M 37 21 C 36.449 21 36 21.449 36 22 L 36 24 C 36 24.551 36.449 25 37 25 C 37.551 25 38 24.551 38 24 L 38 22 C 38 21.449 37.551 21 37 21 z M 42 21 C 41.449 21 41 21.449 41 22 L 41 24 C 41 24.551 41.449 25 42 25 C 42.551 25 43 24.551 43 24 L 43 22 C 43 21.449 42.551 21 42 21 z M 47 21 C 46.449 21 46 21.449 46 22 L 46 24 C 46 24.551 46.449 25 47 25 C 47.551 25 48 24.551 48 24 L 48 22 C 48 21.449 47.551 21 47 21 z M 52 21 C 51.449 21 51 21.449 51 22 L 51 24 C 51 24.551 51.449 25 52 25 C 52.551 25 53 24.551 53 24 L 53 22 C 53 21.449 52.551 21 52 21 z M 14 28 C 13.448 28 13 28.448 13 29 L 13 47 C 13 47.552 13.448 48 14 48 L 50 48 C 50.552 48 51 47.552 51 47 L 51 29 C 51 28.448 50.552 28 50 28 L 14 28 z M 15 30 L 22 30 L 22 37 L 15 37 L 15 30 z M 24 30 L 31 30 L 31 37 L 24 37 L 24 30 z M 33 30 L 40 30 L 40 37 L 33 37 L 33 30 z M 42 30 L 49 30 L 49 37 L 42 37 L 42 30 z M 15 39 L 22 39 L 22 46 L 15 46 L 15 39 z M 24 39 L 31 39 L 31 46 L 24 46 L 24 39 z M 33 39 L 40 39 L 40 46 L 33 46 L 33 39 z M 42 39 L 49 39 L 49 46 L 42 46 L 42 39 z M 10 51 C 9.449 51 9 51.449 9 52 C 9 52.551 9.449 53 10 53 L 54 53 C 54.551 53 55 52.551 55 52 C 55 51.449 54.551 51 54 51 L 10 51 z"/></svg>