<svg xmlns="http://www.w3.org/2000/svg" height="512" viewBox="0 0 24 24" width="512" xmlns:v="https://vecta.io/nano"><path d="M12 .5C5.37.5 0 5.78 0 12.292c0 5.21 3.438 9.63 8.205 11.188.6.11.82-.254.82-.567L9 20.908c-3.338.71-4.042-1.582-4.042-1.582-.546-1.36-1.335-1.725-1.335-1.725-1.087-.73.084-.716.084-.716 1.205.082 1.838 1.215 1.838 1.215 1.07 1.803 2.81 1.282 3.495.98.108-.763.417-1.282.76-1.577-2.665-.295-5.466-1.31-5.466-5.827 0-1.287.465-2.34 1.235-3.164-.135-.298-.54-1.497.105-3.12 0 0 1.005-.316 3.3 1.21.96-.262 1.98-.392 3-.398 1.02.006 2.04.136 3 .398 2.28-1.525 3.285-1.21 3.285-1.21.645 1.624.24 2.823.12 3.12a4.52 4.52 0 0 1 1.23 3.164c0 4.53-2.805 5.527-5.475 5.817.42.354.8 1.077.8 2.182l-.015 3.23c0 .31.2.678.825.56 4.8-1.548 8.236-5.97 8.236-11.173C24 5.78 18.627.5 12 .5z" fill="#212121"/></svg>