<svg xmlns="http://www.w3.org/2000/svg" viewBox="0 0 112.196 112.196" xmlns:v="https://vecta.io/nano"><circle cx="56.098" cy="56.097" r="56.098" fill="#007ab9"/><path d="M89.616 60.61V83.74h-13.41V62.16c0-5.418-1.936-9.118-6.79-9.118-3.705 0-5.906 2.49-6.878 4.903-.353.862-.444 2.06-.444 3.268v22.524h-13.4V43.41h13.41v5.715c-.027.045-.065.09-.09.132h.09v-.132c1.782-2.742 4.96-6.662 12.085-6.662 8.822 0 15.436 5.764 15.436 18.15h0zM34.656 23.97c-4.587 0-7.588 3.01-7.588 6.967 0 3.872 2.914 6.97 7.412 6.97h.087c4.677 0 7.585-3.098 7.585-6.97-.09-3.956-2.908-6.967-7.496-6.967h0zm-6.79 59.77H41.27V43.41H27.865v40.33z" fill="#f1f2f2"/></svg>